<svg width="31" height="31" viewBox="0 0 31 31" fill="none" xmlns="http://www.w3.org/2000/svg">
  <path
    d="M15.5 0.916748C23.5543 0.916748 30.0833 7.44571 30.0833 15.5001C30.0833 23.5545 23.5543 30.0834 15.5 30.0834C7.44558 30.0834 0.916626 23.5545 0.916626 15.5001C0.916626 7.44571 7.44558 0.916748 15.5 0.916748ZM15.5 3.83341C12.4058 3.83341 9.4383 5.06258 7.25038 7.2505C5.06246 9.43843 3.83329 12.4059 3.83329 15.5001C3.83329 18.5943 5.06246 21.5617 7.25038 23.7497C9.4383 25.9376 12.4058 27.1667 15.5 27.1667C18.5942 27.1667 21.5616 25.9376 23.7495 23.7497C25.9375 21.5617 27.1666 18.5943 27.1666 15.5001C27.1666 12.4059 25.9375 9.43843 23.7495 7.2505C21.5616 5.06258 18.5942 3.83341 15.5 3.83341ZM15.5 6.75008C15.8572 6.75013 16.2019 6.88127 16.4688 7.11862C16.7358 7.35598 16.9063 7.68305 16.9481 8.03779L16.9583 8.20842V14.8963L20.906 18.844C21.1676 19.1065 21.3194 19.4586 21.3307 19.829C21.342 20.1993 21.2119 20.5601 20.9669 20.838C20.7218 21.1159 20.3802 21.2901 20.0114 21.3252C19.6425 21.3604 19.2741 21.2538 18.981 21.0272L18.8439 20.9061L14.4689 16.5311C14.2423 16.3043 14.0967 16.009 14.0548 15.6911L14.0416 15.5001V8.20842C14.0416 7.82164 14.1953 7.45071 14.4688 7.17722C14.7423 6.90373 15.1132 6.75008 15.5 6.75008Z"
    fill="white" />
</svg>
  