<svg width="31" height="30" viewBox="0 0 31 30" fill="none" xmlns="http://www.w3.org/2000/svg">
  <path
    d="M11.3889 10.8473C11.4662 10.77 11.6048 10.6738 12.0452 10.614C12.5162 10.5513 13.155 10.5498 14.1437 10.5498H16.8562C17.845 10.5498 18.4837 10.5513 18.9533 10.6154C19.3952 10.6738 19.5337 10.77 19.6096 10.8488C19.6883 10.9246 19.7846 11.0631 19.8429 11.505C19.9071 11.9746 19.9085 12.6133 19.9085 13.6021V16.3146C19.9085 17.3033 19.9071 17.9421 19.8429 18.4117C19.7846 18.8536 19.6883 18.9921 19.6096 19.0679C19.5337 19.1467 19.3952 19.2429 18.9533 19.3013C18.4837 19.3654 17.845 19.3669 16.8562 19.3669H14.1437C13.155 19.3669 12.5162 19.3654 12.0466 19.3013C11.6048 19.2429 11.4662 19.1467 11.3904 19.0679C11.3116 18.9921 11.2154 18.8536 11.1571 18.4117C11.0929 17.9421 11.0914 17.3033 11.0914 16.3146V13.6021C11.0914 12.6133 11.0929 11.9746 11.1571 11.505C11.2154 11.0631 11.3116 10.9246 11.3904 10.8488"
    fill="white" />
  <path fill-rule="evenodd" clip-rule="evenodd"
    d="M15.5 0.375C16.0614 0.375 16.5179 0.83 16.5179 1.39292V5.46167C17.2607 5.46264 17.9388 5.4709 18.5523 5.48646V1.39292C18.5622 1.12981 18.6737 0.880793 18.8634 0.69817C19.0531 0.515546 19.3061 0.413522 19.5694 0.413522C19.8327 0.413522 20.0858 0.515546 20.2755 0.69817C20.4651 0.880793 20.5767 1.12981 20.5866 1.39292V5.46167C20.5856 5.51434 20.5817 5.56692 20.575 5.61917C21.94 5.78688 22.8864 6.13396 23.6054 6.85292C24.3243 7.57188 24.6714 8.51833 24.8391 9.88333C24.8914 9.8766 24.944 9.87271 24.9966 9.87167H29.0654C29.3285 9.88163 29.5775 9.99316 29.7601 10.1828C29.9427 10.3725 30.0448 10.6256 30.0448 10.8889C30.0448 11.1522 29.9427 11.4052 29.7601 11.5949C29.5775 11.7845 29.3285 11.8961 29.0654 11.906H24.9718C24.9884 12.5185 24.9966 13.1967 24.9966 13.9404H29.0654C29.3353 13.9404 29.5943 14.0477 29.7852 14.2386C29.976 14.4295 30.0833 14.6884 30.0833 14.9583C30.0833 15.2283 29.976 15.4872 29.7852 15.6781C29.5943 15.869 29.3353 15.9763 29.0654 15.9763H24.9966C24.9957 16.719 24.9874 17.3972 24.9718 18.0106H29.0654C29.3285 18.0206 29.5775 18.1321 29.7601 18.3218C29.9427 18.5115 30.0448 18.7645 30.0448 19.0278C30.0448 19.2911 29.9427 19.5442 29.7601 19.7338C29.5775 19.9235 29.3285 20.035 29.0654 20.045H24.9966C24.944 20.044 24.8914 20.0401 24.8391 20.0333C24.6714 21.3983 24.3243 22.3448 23.6054 23.0638C22.8864 23.7827 21.94 24.1298 20.575 24.2975C20.5837 24.349 20.5876 24.4015 20.5866 24.455V28.5238C20.5767 28.7869 20.4651 29.0359 20.2755 29.2185C20.0858 29.4011 19.8327 29.5031 19.5694 29.5031C19.3061 29.5031 19.0531 29.4011 18.8634 29.2185C18.6737 29.0359 18.5622 28.7869 18.5523 28.5238V24.4302C17.9398 24.4467 17.2616 24.455 16.5179 24.455V28.5238C16.5179 28.7937 16.4106 29.0526 16.2197 29.2435C16.0288 29.4344 15.7699 29.5417 15.5 29.5417C15.23 29.5417 14.9711 29.4344 14.7802 29.2435C14.5893 29.0526 14.482 28.7937 14.482 28.5238V24.455C13.8038 24.4552 13.1257 24.4469 12.4477 24.4302V28.5238C12.4377 28.7869 12.3262 29.0359 12.1365 29.2185C11.9468 29.4011 11.6938 29.5031 11.4305 29.5031C11.1672 29.5031 10.9141 29.4011 10.7245 29.2185C10.5348 29.0359 10.4233 28.7869 10.4133 28.5238V24.455C10.4133 24.4006 10.4172 24.3481 10.425 24.2975C9.05996 24.1298 8.1135 23.7827 7.39454 23.0638C6.67558 22.3448 6.3285 21.3983 6.16079 20.0333C6.10854 20.0401 6.05596 20.044 6.00329 20.045H1.93454C1.67143 20.035 1.42242 19.9235 1.2398 19.7338C1.05717 19.5442 0.955148 19.2911 0.955148 19.0278C0.955148 18.7645 1.05717 18.5115 1.2398 18.3218C1.42242 18.1321 1.67143 18.0206 1.93454 18.0106H6.02808C6.01137 17.3326 6.00311 16.6545 6.00329 15.9763H1.93454C1.66457 15.9763 1.40566 15.869 1.21477 15.6781C1.02387 15.4872 0.916626 15.2283 0.916626 14.9583C0.916626 14.6884 1.02387 14.4295 1.21477 14.2386C1.40566 14.0477 1.66457 13.9404 1.93454 13.9404H6.00329C6.00426 13.1976 6.01253 12.5195 6.02808 11.906H1.93454C1.67143 11.8961 1.42242 11.7845 1.2398 11.5949C1.05717 11.4052 0.955148 11.1522 0.955148 10.8889C0.955148 10.6256 1.05717 10.3725 1.2398 10.1828C1.42242 9.99316 1.67143 9.88163 1.93454 9.87167H6.00329C6.05774 9.87167 6.11024 9.87556 6.16079 9.88333C6.3285 8.51833 6.67558 7.57188 7.39454 6.85292C8.1135 6.13396 9.05996 5.78688 10.425 5.61917C10.4182 5.56692 10.4143 5.51434 10.4133 5.46167V1.39292C10.4233 1.12981 10.5348 0.880793 10.7245 0.69817C10.9141 0.515546 11.1672 0.413522 11.4305 0.413522C11.6938 0.413522 11.9468 0.515546 12.1365 0.69817C12.3262 0.880793 12.4377 1.12981 12.4477 1.39292V5.48646C13.0602 5.46993 13.7383 5.46167 14.482 5.46167V1.39292C14.482 0.83 14.9385 0.375 15.5 0.375ZM14.0766 8.51396C13.1739 8.51396 12.3966 8.51396 11.7754 8.59854C11.1075 8.6875 10.4687 8.89021 9.94954 9.40792C9.43184 9.92708 9.22913 10.5658 9.14017 11.2338C9.05558 11.8565 9.05558 12.6338 9.05558 13.535V16.3817C9.05558 17.2844 9.05558 18.0602 9.14017 18.6829C9.22913 19.3508 9.43184 19.9896 9.94954 20.5088C10.4687 21.0265 11.1075 21.2292 11.7754 21.3181C12.3966 21.4027 13.1754 21.4027 14.0766 21.4027H16.9233C17.826 21.4027 18.6018 21.4027 19.2245 21.3181C19.8925 21.2292 20.5312 21.0265 21.0504 20.5088C21.5681 19.9896 21.7708 19.3508 21.8598 18.6829C21.9443 18.0602 21.9443 17.2829 21.9443 16.3817V13.535C21.9443 12.6323 21.9443 11.8565 21.8598 11.2338C21.7708 10.5658 21.5681 9.92708 21.0504 9.40792C20.5312 8.89021 19.8925 8.6875 19.2245 8.59854C18.6018 8.51396 17.8245 8.51396 16.9233 8.51396H14.0766Z"
    fill="white" />
</svg>
  