
<svg width="27" height="27" viewBox="0 0 27 27" fill="none" xmlns="http://www.w3.org/2000/svg">
  <path
    d="M13.5 12.0417C17.1458 12.0417 20.2448 11.4705 22.7969 10.3281C25.349 9.18576 26.625 7.8125 26.625 6.20833C26.625 4.60417 25.349 3.2309 22.7969 2.08854C20.2448 0.946181 17.1458 0.375 13.5 0.375C9.85417 0.375 6.75521 0.946181 4.20312 2.08854C1.65104 3.2309 0.375 4.60417 0.375 6.20833C0.375 7.8125 1.65104 9.18576 4.20312 10.3281C6.75521 11.4705 9.85417 12.0417 13.5 12.0417ZM13.5 15.6875C14.4965 15.6875 15.7424 15.584 17.2377 15.3769C18.733 15.1698 20.1728 14.8358 21.5573 14.375C22.9417 13.9142 24.1327 13.3128 25.1302 12.571C26.1277 11.8292 26.626 10.9236 26.625 9.85417V13.5C26.625 14.5694 26.1267 15.4751 25.1302 16.2169C24.1337 16.9587 22.9427 17.56 21.5573 18.0208C20.1719 18.4817 18.732 18.8161 17.2377 19.0242C15.7434 19.2322 14.4975 19.3353 13.5 19.3333C12.5025 19.3314 11.2571 19.2278 9.76375 19.0227C8.27042 18.8176 6.83007 18.4836 5.44271 18.0208C4.05535 17.5581 2.86437 16.9567 1.86979 16.2169C0.875208 15.477 0.376944 14.5714 0.375 13.5V9.85417C0.375 10.9236 0.873264 11.8292 1.86979 12.571C2.86632 13.3128 4.05729 13.9142 5.44271 14.375C6.82812 14.8358 8.26847 15.1703 9.76375 15.3783C11.259 15.5864 12.5044 15.6894 13.5 15.6875ZM13.5 22.9792C14.4965 22.9792 15.7424 22.8756 17.2377 22.6685C18.733 22.4615 20.1728 22.1275 21.5573 21.6667C22.9417 21.2058 24.1327 20.6045 25.1302 19.8627C26.1277 19.1209 26.626 18.2153 26.625 17.1458V20.7917C26.625 21.8611 26.1267 22.7667 25.1302 23.5085C24.1337 24.2503 22.9427 24.8517 21.5573 25.3125C20.1719 25.7733 18.732 26.1078 17.2377 26.3158C15.7434 26.5239 14.4975 26.6269 13.5 26.625C12.5025 26.6231 11.2571 26.5195 9.76375 26.3144C8.27042 26.1092 6.83007 25.7753 5.44271 25.3125C4.05535 24.8497 2.86437 24.2484 1.86979 23.5085C0.875208 22.7687 0.376944 21.8631 0.375 20.7917V17.1458C0.375 18.2153 0.873264 19.1209 1.86979 19.8627C2.86632 20.6045 4.05729 21.2058 5.44271 21.6667C6.82812 22.1275 8.26847 22.4619 9.76375 22.67C11.259 22.8781 12.5044 22.9811 13.5 22.9792Z"
    fill="white" />
</svg>
