<svg width="21" height="22" viewBox="0 0 21 22" fill="none" xmlns="http://www.w3.org/2000/svg">
  <path fill-rule="evenodd" clip-rule="evenodd"
    d="M0 2.01494C0 1.56896 0.177164 1.14125 0.492518 0.825892C0.807872 0.510538 1.23558 0.333374 1.68156 0.333374H18.4972C18.9431 0.333374 19.3709 0.510538 19.6862 0.825892C20.0016 1.14125 20.1787 1.56896 20.1787 2.01494V4.35343C20.1786 4.94801 19.9423 5.5182 19.5218 5.93858L13.4525 12.0079V20.3305C13.4525 20.5407 13.3988 20.7475 13.2965 20.9311C13.1941 21.1147 13.0465 21.2691 12.8677 21.3796C12.6889 21.4902 12.4848 21.5531 12.2748 21.5626C12.0647 21.572 11.8558 21.5276 11.6678 21.4336L7.50088 19.3507C7.26812 19.2343 7.07236 19.0554 6.93554 18.8341C6.79873 18.6127 6.72625 18.3576 6.72624 18.0974V12.0079L0.65693 5.93858C0.236429 5.5182 0.000126986 4.94801 0 4.35343V2.01494Z"
    fill="white" />
</svg>