<svg width="18" height="17" viewBox="0 0 18 17" fill="none" xmlns="http://www.w3.org/2000/svg">
  <path
    d="M5.24995 7.87503C4.26468 7.87513 3.30829 8.2078 2.53564 8.81916C1.76299 9.43053 1.21933 10.2848 0.992692 11.2437C0.766051 12.2025 0.8697 13.2098 1.28686 14.1024C1.70401 14.995 2.41025 15.7206 3.29121 16.1619C4.17216 16.6031 5.17626 16.734 6.1409 16.5334C7.10554 16.3329 7.97425 15.8126 8.60635 15.0568C9.23845 14.301 9.59693 13.354 9.62375 12.3691C9.65057 11.3842 9.34415 10.4191 8.75411 9.63003L11.6241 6.76003L12.4591 7.59503C12.7458 7.8817 13.1158 8.0867 13.5566 8.00587C13.9208 7.9392 14.1924 7.69087 14.3458 7.54587L14.5099 7.3892C14.8049 7.10587 14.9908 6.92754 15.2824 6.8792C15.5058 6.8417 15.7841 6.77587 16.0391 6.6167C16.3279 6.43729 16.5439 6.16162 16.6491 5.83837C16.7626 5.51107 16.7522 5.15353 16.6199 4.83337C16.4958 4.5267 16.2774 4.2517 16.0208 3.99587L15.2041 3.1792L16.9416 1.4417C17.052 1.32322 17.1121 1.16652 17.1093 1.0046C17.1064 0.842682 17.0408 0.688194 16.9263 0.573683C16.8118 0.459173 16.6573 0.393579 16.4954 0.390722C16.3335 0.387866 16.1768 0.447968 16.0583 0.558368L7.86995 8.74587C7.11406 8.17933 6.19458 7.87371 5.24995 7.87503Z"
    fill="white" />
</svg>