<svg width="58" height="46" viewBox="0 0 58 46" fill="none" xmlns="http://www.w3.org/2000/svg">
<g clip-path="url(#clip0_1278_376)">
<path d="M27.5 21.965C31.1458 21.965 34.2448 21.3938 36.7969 20.2515C39.349 19.1091 40.625 17.7358 40.625 16.1317C40.625 14.5275 39.349 13.1542 36.7969 12.0119C34.2448 10.8695 31.1458 10.2983 27.5 10.2983C23.8542 10.2983 20.7552 10.8695 18.2031 12.0119C15.651 13.1542 14.375 14.5275 14.375 16.1317C14.375 17.7358 15.651 19.1091 18.2031 20.2515C20.7552 21.3938 23.8542 21.965 27.5 21.965ZM27.5 25.6108C28.4965 25.6108 29.7424 25.5073 31.2377 25.3002C32.733 25.0931 34.1728 24.7592 35.5573 24.2983C36.9417 23.8375 38.1327 23.2362 39.1302 22.4944C40.1277 21.7526 40.626 20.847 40.625 19.7775V23.4233C40.625 24.4928 40.1267 25.3984 39.1302 26.1402C38.1337 26.882 36.9427 27.4833 35.5573 27.9442C34.1719 28.405 32.732 28.7395 31.2377 28.9475C29.7434 29.1556 28.4975 29.2586 27.5 29.2567C26.5025 29.2547 25.2571 29.1512 23.7637 28.946C22.2704 28.7409 20.8301 28.407 19.4427 27.9442C18.0553 27.4814 16.8644 26.8801 15.8698 26.1402C14.8752 25.4004 14.3769 24.4947 14.375 23.4233V19.7775C14.375 20.847 14.8733 21.7526 15.8698 22.4944C16.8663 23.2362 18.0573 23.8375 19.4427 24.2983C20.8281 24.7592 22.2685 25.0936 23.7637 25.3017C25.259 25.5097 26.5044 25.6128 27.5 25.6108ZM27.5 32.9025C28.4965 32.9025 29.7424 32.799 31.2377 32.5919C32.733 32.3848 34.1728 32.0508 35.5573 31.59C36.9417 31.1292 38.1327 30.5279 39.1302 29.7861C40.1277 29.0442 40.626 28.1386 40.625 27.0692V30.715C40.625 31.7845 40.1267 32.6901 39.1302 33.4319C38.1337 34.1737 36.9427 34.775 35.5573 35.2358C34.1719 35.6967 32.732 36.0311 31.2377 36.2392C29.7434 36.4472 28.4975 36.5503 27.5 36.5483C26.5025 36.5464 25.2571 36.4429 23.7637 36.2377C22.2704 36.0326 20.8301 35.6986 19.4427 35.2358C18.0553 34.7731 16.8644 34.1717 15.8698 33.4319C14.8752 32.692 14.3769 31.7864 14.375 30.715V27.0692C14.375 28.1386 14.8733 29.0442 15.8698 29.7861C16.8663 30.5279 18.0573 31.1292 19.4427 31.59C20.8281 32.0508 22.2685 32.3853 23.7637 32.5933C25.259 32.8014 26.5044 32.9045 27.5 32.9025Z" fill="white"/>
</g>
<defs>
<clipPath id="clip0_1278_376">
<rect y="0.92334" width="58" height="45" rx="10" fill="white"/>
</clipPath>
</defs>
</svg>
