<svg width="30" height="30" viewBox="0 0 30 30" fill="none" xmlns="http://www.w3.org/2000/svg">
<rect x="0.5" y="0.5" width="29" height="29" rx="4.5" stroke="#282939" stroke-dasharray="0.4 0.4"/>
<path fill-rule="evenodd" clip-rule="evenodd" d="M9 9.00894C9 8.74135 9.1063 8.48472 9.29551 8.29551C9.48472 8.1063 9.74135 8 10.0089 8H20.0983C20.3659 8 20.6225 8.1063 20.8117 8.29551C21.0009 8.48472 21.1072 8.74135 21.1072 9.00894V10.412C21.1072 10.7688 20.9654 11.1109 20.7131 11.3631L17.0715 15.0047V19.9983C17.0715 20.1244 17.0393 20.2484 16.9779 20.3586C16.9165 20.4688 16.8279 20.5614 16.7206 20.6278C16.6133 20.6941 16.4909 20.7319 16.3649 20.7375C16.2388 20.7432 16.1135 20.7166 16.0007 20.6601L13.5005 19.4104C13.3609 19.3406 13.2434 19.2332 13.1613 19.1004C13.0792 18.9676 13.0358 18.8145 13.0357 18.6584V15.0047L9.39416 11.3631C9.14186 11.1109 9.00008 10.7688 9 10.412V9.00894Z" fill="white"/>
</svg>
