<svg width="14" height="11" viewBox="0 0 14 11" fill="none" xmlns="http://www.w3.org/2000/svg">
<path d="M7 7.5C8.10457 7.5 9 6.60457 9 5.5C9 4.39543 8.10457 3.5 7 3.5C5.89543 3.5 5 4.39543 5 5.5C5 6.60457 5.89543 7.5 7 7.5Z" stroke="white" stroke-width="1.33333"/>
<path d="M12.4587 4.78933C12.7173 5.104 12.8467 5.26067 12.8467 5.5C12.8467 5.73933 12.7173 5.896 12.4587 6.21067C11.512 7.36 9.42399 9.5 6.99999 9.5C4.57599 9.5 2.48799 7.36 1.54132 6.21067C1.28265 5.896 1.15332 5.73933 1.15332 5.5C1.15332 5.26067 1.28265 5.104 1.54132 4.78933C2.48799 3.64 4.57599 1.5 6.99999 1.5C9.42399 1.5 11.512 3.64 12.4587 4.78933Z" stroke="white" stroke-width="1.33333"/>
</svg>
