<svg width="58" height="46" viewBox="0 0 58 46" fill="none" xmlns="http://www.w3.org/2000/svg">
<g clip-path="url(#clip0_1278_380)">
<path d="M22.0313 31.2765L19.8438 29.0879L18.3005 30.6301L22.0313 34.3608L28.5938 27.7983L27.0516 26.2562L22.0313 31.2765ZM40.625 38.7358H36.25V36.5483H40.625V23.4233H36.25V14.6733C36.2486 13.5135 35.7872 12.4015 34.967 11.5813C34.1468 10.7612 33.0349 10.2998 31.875 10.2983V8.11084C33.6149 8.11287 35.2829 8.80492 36.5132 10.0352C37.7434 11.2655 38.4355 12.9335 38.4375 14.6733V21.2358H40.625C41.2052 21.2358 41.7616 21.4663 42.1718 21.8765C42.582 22.2868 42.8125 22.8432 42.8125 23.4233V36.5483C42.8125 37.1285 42.582 37.6849 42.1718 38.0951C41.7616 38.5054 41.2052 38.7358 40.625 38.7358Z" fill="white"/>
<path d="M31.875 21.2358H29.6875V14.6733C29.6875 12.9329 28.9961 11.2637 27.7654 10.033C26.5347 8.80224 24.8655 8.11084 23.125 8.11084C21.3845 8.11084 19.7153 8.80224 18.4846 10.033C17.2539 11.2637 16.5625 12.9329 16.5625 14.6733V21.2358H14.375C13.7948 21.2358 13.2384 21.4663 12.8282 21.8765C12.418 22.2868 12.1875 22.8432 12.1875 23.4233V36.5483C12.1875 37.1285 12.418 37.6849 12.8282 38.0951C13.2384 38.5054 13.7948 38.7358 14.375 38.7358H31.875C32.4552 38.7358 33.0116 38.5054 33.4218 38.0951C33.832 37.6849 34.0625 37.1285 34.0625 36.5483V23.4233C34.0625 22.8432 33.832 22.2868 33.4218 21.8765C33.0116 21.4663 32.4552 21.2358 31.875 21.2358ZM18.75 14.6733C18.75 13.513 19.2109 12.4002 20.0314 11.5797C20.8519 10.7593 21.9647 10.2983 23.125 10.2983C24.2853 10.2983 25.3981 10.7593 26.2186 11.5797C27.0391 12.4002 27.5 13.513 27.5 14.6733V21.2358H18.75V14.6733ZM31.875 36.5483H14.375V23.4233H31.875V36.5483Z" fill="white"/>
</g>
<defs>
<clipPath id="clip0_1278_380">
<rect y="0.92334" width="58" height="45" rx="10" fill="white"/>
</clipPath>
</defs>
</svg>
