<svg width="38" height="33" viewBox="0 0 38 33" fill="none" xmlns="http://www.w3.org/2000/svg">
<path d="M10.5145 13.5605L9.51007 14.6367L14.8191 20.0174L9.51007 25.3982L10.5145 26.4743L16.9714 20.0174L10.5145 13.5605Z" fill="white"/>
<path fill-rule="evenodd" clip-rule="evenodd" d="M35.2857 8.46167H2.71429V13.795V16.4617V21.795V24.4617V29.795H35.2857V24.4617V21.795V16.4617V13.795V8.46167ZM2.71429 0.46167H35.2857C36.784 0.46167 38 1.563 38 2.923V30.0003C38 31.3603 36.784 32.4617 35.2857 32.4617H2.71429C1.216 32.4617 0 31.3603 0 30.0003V2.923C0 1.563 1.216 0.46167 2.71429 0.46167Z" fill="white"/>
<line x1="14.4761" y1="24.8506" x2="27.1428" y2="24.8506" stroke="white"/>
</svg>
