<svg width="12" height="12" viewBox="0 0 12 12" fill="none" xmlns="http://www.w3.org/2000/svg">
<path d="M2.00008 8.66699H1.33341C1.1566 8.66699 0.987035 8.59675 0.86201 8.47173C0.736986 8.34671 0.666748 8.17714 0.666748 8.00033V1.33366C0.666748 1.15685 0.736986 0.987279 0.86201 0.862254C0.987035 0.73723 1.1566 0.666992 1.33341 0.666992H8.00008C8.17689 0.666992 8.34646 0.73723 8.47149 0.862254C8.59651 0.987279 8.66675 1.15685 8.66675 1.33366V2.00033M4.00008 11.3337H10.6667C10.8436 11.3337 11.0131 11.2634 11.1382 11.1384C11.2632 11.0134 11.3334 10.8438 11.3334 10.667V4.00033C11.3334 3.82351 11.2632 3.65395 11.1382 3.52892C11.0131 3.4039 10.8436 3.33366 10.6667 3.33366H4.00008C3.82327 3.33366 3.6537 3.4039 3.52868 3.52892C3.40365 3.65395 3.33341 3.82351 3.33341 4.00033V10.667C3.33341 10.8438 3.40365 11.0134 3.52868 11.1384C3.6537 11.2634 3.82327 11.3337 4.00008 11.3337Z" stroke="white" stroke-width="1.33333" stroke-linejoin="round"/>
</svg>
